<svg viewBox="0 0 1024 1024" version="1.1" xmlns="http://www.w3.org/2000/svg" p-id="16460" width="200" height="200">
  <path 
    d="M9.386667 475.136l0.512-0.512h0.128l158.72-128.554667a21.333333 21.333333 0 0 1 29.994666 3.157334l13.44 16.597333a21.333333 21.333333 0 0 1-3.157333 29.994667L94.506667 488.533333l125.269333 78.293334a21.333333 21.333333 0 0 1 6.784 29.397333l-11.306667 18.090667a21.333333 21.333333 0 0 1-29.397333 6.784L15.445333 514.56l-1.706666-0.853333-2.304-1.664-1.322667-0.853334a21.248 21.248 0 0 1-9.429333-13.013333 21.290667 21.290667 0 0 1 7.253333-21.888l1.408-1.194667z m998.485333-3.413333l5.717333 4.608a21.333333 21.333333 0 0 1 2.986667 30.208 21.333333 21.333333 0 0 1-5.504 4.906666l-1.066667 0.682667-4.096 2.986667-2.816 1.322666-167.466666 104.661334a21.333333 21.333333 0 0 1-29.44-6.826667l-11.264-18.048a21.333333 21.333333 0 0 1 6.784-29.44l125.269333-78.250667-114.517333-92.714666a21.333333 21.333333 0 0 1-3.157334-29.994667l13.44-16.597333a21.333333 21.333333 0 0 1 29.994667-3.157334l152.021333 123.136 0.512 0.085334 2.602667 2.432z m-464.64 339.285333l-102.997333-27.605333 16.554666-61.866667 103.04 27.648 27.605334-103.04-103.04-27.605333 16.554666-61.824 103.04 27.605333 27.605334-103.04-103.04-27.605333 16.554666-61.781334 103.04 27.605334 27.605334-103.04-102.997334-27.605334 16.554667-61.866666 103.04 27.648 16.554667-61.824-206.08-55.210667-187.733334 700.586667 206.08 55.253333 22.058667-82.432z m-65.066667-746.24l288.512 77.226667a21.333333 21.333333 0 0 1 15.061334 26.154666l-209.792 783.061334a21.333333 21.333333 0 0 1-26.112 15.061333L257.28 889.002667a21.333333 21.333333 0 0 1-15.061333-26.154667l209.792-783.018667a21.333333 21.333333 0 0 1 26.112-15.104z" 
    fill="#1afa29" 
    p-id="16461"
  >
  </path>
</svg>